# xmcd CD database file
# Copyright (C) 1993-1998 Ti Kan
#
# Track frame offsets:
#  150
#  15348
#  43555
#  67800
#  93150
#  112170
#  134903
#  150443
#  172458
#  191255
#  210533
#  229050
#  250070
#  266128
#
# Disc length: 4028 seconds
#
# Revision: 1
# Processed by: cddbd v1.4b41PL1 Copyright (c) Steve Scherf et al.
# Submitted via: CDWizzard Release:4.35
#
DISCID=be0fba0e
DTITLE=Sounds Of Nicholas - The Inspirational
DYEAR=1900
DGENRE=
TTITLE0=I Can Do All Things
TTITLE1=The Closer I Get To You
TTITLE2=Tell Somebody
TTITLE3=Nearer My God To Thee
TTITLE4=Stand Up
TTITLE5=Highest Praise
TTITLE6=I'm So Happy
TTITLE7=Run And Not Get Weary
TTITLE8=In Everything Give Thanks
TTITLE9=God's Woman
TTITLE10=Something About That Name
TTITLE11=It Is Well With My Soul
TTITLE12=For By Grace
TTITLE13=The Invitation
EXTD=
EXTT0=
EXTT1=
EXTT2=
EXTT3=
EXTT4=
EXTT5=
EXTT6=
EXTT7=
EXTT8=
EXTT9=
EXTT10=
EXTT11=
EXTT12=
EXTT13=
PLAYORDER=
